<?xml version="1.0" encoding="utf-8"?>
<!-- Generator: Adobe Illustrator 16.0.0, SVG Export Plug-In . SVG Version: 6.00 Build 0)  -->
<!DOCTYPE svg PUBLIC "-//W3C//DTD SVG 1.1//EN" "http://www.w3.org/Graphics/SVG/1.1/DTD/svg11.dtd">
<svg version="1.1" id="Layer_1" xmlns="http://www.w3.org/2000/svg" xmlns:xlink="http://www.w3.org/1999/xlink" x="0px" y="0px"
	 width="415.998px" height="120px" viewBox="0 0 415.998 120" enable-background="new 0 0 415.998 120" xml:space="preserve">
<path fill="#FFFFFF" d="M309.785,103.318c-15.969,0-28.912-12.943-28.912-28.91c0-15.975,12.943-28.918,28.912-28.918
	c15.972,0,28.914,12.943,28.914,28.918C338.699,90.375,325.756,103.318,309.785,103.318 M310.001,33.843
	c-22.402,0-40.561,18.162-40.561,40.565c0,22.397,18.158,40.556,40.561,40.556s40.561-18.158,40.561-40.556
	C350.562,52.005,332.404,33.843,310.001,33.843"/>
<path fill="#FFFFFF" d="M178.039,49.484c4.25-0.025,8.496,0.033,12.713,0.137c-21.645-12.455-41.156-23.67-41.502-23.83L192.062,6
	L59.451,21.207l81.881-3.362l-15.879,6.707L178.039,49.484z M178.039,49.484"/>
<path fill="#FFFFFF" d="M336.572,105.037l73.908,0.534l-3.506-8.514c-2.629-6.019-5.855-11.814-9.677-17.195
	c-3.829-5.368-8.205-10.373-13.14-14.727c-4.918-4.358-10.268-8.197-15.93-11.388c-5.66-3.19-11.566-5.859-17.613-7.998
	c-5.889-2.078-11.879-3.699-17.918-4.967c4.666,3.156,8.633,7.264,11.642,12.039c1.054,0.393,2.108,0.779,3.149,1.199
	c5.521,2.227,10.82,4.893,15.795,8.004c4.974,3.119,9.558,6.758,13.707,10.795c4.162,4.028,7.767,8.576,10.892,13.42
	c1.515,2.361,6.302,9.908,7.569,12.423c-22.446,0.375-53.627,0.877-53.627,0.877C340.246,101.534,338.49,103.373,336.572,105.037
	L336.572,105.037z M336.572,105.037"/>
<path fill="#FFFFFF" d="M275.953,36.941c-12.453,0.457-24.832,1.523-37.151,2.766l-17.392,1.755
	c1.318-2.869,2.076-6.048,2.076-9.416c0-12.47-10.109-22.578-22.58-22.578c-5.896,0-11.248,2.278-15.271,5.983
	c-0.127,0.664-4.202,13.836-5.516,20.002c0.932,1.744,2.139,3.353,3.672,4.633c2.51,2.134,5.601,3.425,8.711,4.152
	c3.181,0.758,6.289,0.951,9.437,1.066c6.262,0.184,12.467-0.113,18.66-0.424l18.523-1.08c12.328-0.713,24.642-1.248,36.918-1.175
	c2.857,0.019,5.716,0.074,8.57,0.16c3.084-2.481,6.537-4.512,10.264-6.014C288.553,36.634,282.24,36.714,275.953,36.941
	L275.953,36.941z M275.953,36.941"/>
<path fill="#FFFFFF" d="M32.121,97.244c-0.189,0.143-0.58,0.209-1.174,0.209h-6.322c-0.475,0-0.807-0.091-0.99-0.267
	c-0.182-0.177-0.225-0.507-0.127-0.985l5.967-29.515c0.291-1.432,0.755-2.802,1.398-4.112c0.644-1.313,1.498-2.484,2.56-3.52
	c1.065-1.034,2.354-1.856,3.872-2.475c1.513-0.613,3.306-0.922,5.375-0.922h17.408c0.519,0,0.826,0.1,0.926,0.295
	c0.097,0.199,0.091,0.578-0.02,1.135l-1.025,5.067c-0.106,0.519-0.266,0.865-0.481,1.046c-0.217,0.176-0.541,0.266-0.98,0.266
	H43.066c-1.55,0-2.654,0.349-3.31,1.047c-0.658,0.692-1.096,1.575-1.313,2.651l-1.111,5.484h42.435c0.477,0,0.766,0.09,0.872,0.271
	c0.101,0.176,0.091,0.563-0.028,1.162l-0.939,4.647c-0.098,0.479-0.248,0.827-0.451,1.047c-0.204,0.22-0.524,0.324-0.959,0.324
	H35.826L32.57,96.201C32.457,96.76,32.308,97.108,32.121,97.244L32.121,97.244z M32.121,97.244"/>
<path fill="#FFFFFF" d="M93.701,67.55c-0.242-2.643-0.941-4.886-2.096-6.735c-1.158-1.85-2.799-3.268-4.922-4.265
	c-2.125-0.992-4.736-1.49-7.837-1.49c-2.864,0-5.53,0.498-7.993,1.49c-2.466,0.997-4.685,2.415-6.648,4.265
	c-1.832,1.727-3.408,3.827-4.748,6.278h10.191c0.014-0.014,0.024-0.033,0.035-0.047c0.997-1.193,2.131-2.139,3.405-2.831
	c1.275-0.698,2.666-1.047,4.177-1.047c1.827,0,3.243,0.369,4.25,1.104c1.002,0.734,1.715,1.721,2.145,2.953
	c0.426,1.23,0.603,2.662,0.533,4.293c-0.072,1.629-0.287,3.336-0.65,5.125c-0.356,1.75-0.844,3.429-1.467,5.037
	c-0.625,1.612-1.395,3.022-2.316,4.239c-0.922,1.211-2.034,2.183-3.334,2.918c-1.303,0.736-2.807,1.104-4.518,1.104
	c-1.748,0-3.133-0.317-4.16-0.956c-1.022-0.634-1.762-1.552-2.215-2.742c-0.246-0.642-0.408-1.367-0.508-2.151h-9.748
	c0.043,3.36,0.725,6.172,2.072,8.413c2.245,3.736,6.448,5.605,12.612,5.605c3.22,0,6.097-0.488,8.642-1.462
	c2.541-0.973,4.778-2.394,6.703-4.264c1.93-1.869,3.53-4.132,4.805-6.796c1.276-2.663,2.258-5.704,2.947-9.123
	C93.726,73.17,93.941,70.196,93.701,67.55L93.701,67.55z M93.701,67.55"/>
<path fill="#FFFFFF" d="M117.775,68.356c0.105-0.518,0.133-1.053,0.086-1.609c-0.045-0.555-0.211-1.063-0.498-1.521
	c-0.285-0.457-0.734-0.833-1.35-1.132c-0.615-0.299-1.439-0.447-2.472-0.447h-8.11l-1.929,9.539h7.929
	c1.748,0,3.17-0.446,4.27-1.343C116.793,70.95,117.486,69.788,117.775,68.356 M119.662,77.896c1.232,0.597,2.015,1.441,2.349,2.533
	c0.334,1.095,0.543,2.338,0.618,3.729l0.628,11.922c0.034,0.24-0.037,0.529-0.205,0.867c-0.166,0.338-0.488,0.504-0.966,0.504h-6.26
	c-0.438,0-0.887-0.049-1.34-0.144c-0.459-0.101-0.727-0.45-0.805-1.047l-0.488-10.554c-0.123-1.946-0.613-3.299-1.477-4.057
	c-0.861-0.753-2.185-1.132-3.974-1.132h-5.785L98.787,96.2c-0.114,0.56-0.262,0.908-0.451,1.043
	c-0.186,0.144-0.579,0.209-1.172,0.209h-6.383c-0.475,0-0.807-0.09-0.988-0.265c-0.184-0.178-0.227-0.508-0.129-0.987l7.466-36.908
	c0.239-1.191,0.661-2.094,1.262-2.713c0.6-0.613,1.619-0.922,3.051-0.922h14.609c4.33,0,7.459,1.092,9.383,3.278
	c1.922,2.188,2.51,5.129,1.764,8.823c-0.412,2.029-1.276,3.936-2.59,5.725c-1.314,1.79-2.965,3.161-4.947,4.114V77.896z
	 M119.662,77.896"/>
<path fill="#FFFFFF" d="M163.051,73.424h-0.357l-3.567,5.545l-7.168,10.975c-0.648,1.033-1.234,1.726-1.763,2.085
	c-0.532,0.358-1.252,0.538-2.165,0.538h-3.281c-0.994,0-1.642-0.18-1.949-0.538c-0.305-0.359-0.59-1.052-0.859-2.085l-2.129-7.754
	l-2.069-8.047h-0.359l-4.471,22.119c-0.113,0.558-0.283,0.896-0.506,1.014c-0.222,0.121-0.593,0.177-1.109,0.177h-6.082
	c-0.437,0-0.764-0.056-0.979-0.177c-0.212-0.118-0.263-0.456-0.15-1.014l7.367-36.43c0.307-1.512,0.811-2.584,1.516-3.22
	c0.707-0.635,1.756-0.954,3.15-0.954h3.463c1.115,0,1.897,0.209,2.35,0.623c0.453,0.42,0.814,1.143,1.084,2.18l3.564,14.549
	l1.992,8.467h0.239l5.939-9.303l8.842-13.594c0.693-1.076,1.373-1.83,2.041-2.267c0.664-0.436,1.633-0.655,2.908-0.655h2.926
	c1.275,0,2.174,0.266,2.703,0.803c0.529,0.539,0.641,1.561,0.334,3.072l-7.426,36.729c-0.113,0.558-0.283,0.896-0.508,1.014
	c-0.222,0.121-0.595,0.177-1.117,0.177h-5.943c-0.438,0-0.76-0.056-0.955-0.177c-0.197-0.118-0.236-0.456-0.123-1.014
	L163.051,73.424z M163.051,73.424"/>
<path fill="#FFFFFF" d="M203.547,91.67c-0.283,1.395-0.832,2.586-1.648,3.579c-0.819,0.992-2.104,1.709-3.864,2.147
	c-0.834,0.197-1.74,0.345-2.713,0.445c-0.974,0.099-1.943,0.17-2.906,0.209c-0.961,0.041-1.861,0.069-2.703,0.09
	c-0.836,0.019-1.514,0.031-2.031,0.031c-3.42,0-6.291-0.289-8.619-0.863c-2.328-0.578-4.127-1.562-5.397-2.953
	c-1.267-1.391-2.027-3.241-2.277-5.547c-0.248-2.305-0.02-5.207,0.687-8.707l4.619-23.133c0.096-0.479,0.282-0.807,0.557-0.983
	c0.275-0.179,0.629-0.269,1.068-0.269h6.379c0.598,0,0.971,0.08,1.118,0.236c0.144,0.16,0.166,0.498,0.062,1.016l-4.787,23.672
	c-0.332,1.629-0.479,3.05-0.445,4.261c0.033,1.217,0.324,2.219,0.879,3.012c0.558,0.798,1.402,1.382,2.537,1.761
	c1.136,0.379,2.66,0.563,4.568,0.563c0.275,0,0.658-0.005,1.137-0.029c0.484-0.019,1.011-0.036,1.593-0.06
	c0.581-0.016,1.186-0.057,1.813-0.116c0.629-0.06,1.213-0.149,1.752-0.269l6.635-32.795c0.095-0.479,0.271-0.807,0.527-0.983
	c0.254-0.179,0.619-0.269,1.096-0.269h6.322c0.597,0,0.947,0.08,1.056,0.236c0.106,0.16,0.106,0.498,0.004,1.016L203.547,91.67z
	 M203.547,91.67"/>
<path fill="#FFFFFF" d="M209.933,96.5c-1.283-0.634-2.236-1.472-2.861-2.503c-0.627-1.032-0.967-2.209-1.02-3.519
	c-0.053-1.313,0.061-2.645,0.332-3.995l5.981-29.574c0.097-0.478,0.271-0.806,0.526-0.986c0.256-0.18,0.621-0.266,1.101-0.266h6.317
	c0.599,0,0.97,0.08,1.115,0.238c0.147,0.157,0.166,0.495,0.063,1.014l-5.851,28.919c-0.305,1.511-0.143,2.524,0.492,3.037
	c0.627,0.519,1.539,0.778,2.735,0.778h15.144c0.438,0,0.721,0.07,0.851,0.209c0.133,0.138,0.142,0.488,0.03,1.042l-1.073,5.305
	c-0.171,0.838-0.634,1.252-1.388,1.252h-17.231C212.968,97.452,211.216,97.139,209.933,96.5L209.933,96.5z M209.933,96.5"/>
<path fill="#FFFFFF" d="M260.623,58.875c-0.094-0.713-0.227-1.289-0.396-1.727c-0.17-0.437-0.411-0.777-0.719-1.015
	c-0.312-0.237-0.696-0.389-1.164-0.446c-0.464-0.06-1.032-0.089-1.709-0.089h-3.576c-0.599,0-1.136,0.05-1.61,0.146
	c-0.478,0.104-0.91,0.27-1.299,0.508c-0.384,0.238-0.75,0.568-1.091,0.986c-0.345,0.414-0.683,0.963-1.019,1.637l-19.965,37.387
	c-0.142,0.317-0.188,0.597-0.137,0.836c0.049,0.236,0.293,0.354,0.732,0.354h6.975c0.559,0,0.963-0.09,1.217-0.265
	c0.256-0.178,0.485-0.467,0.684-0.866l11.289-22.506l3.996-8.561h0.359l2.623,31.245c0.032,0.438,0.186,0.709,0.465,0.809
	c0.28,0.095,0.635,0.144,1.073,0.144h7.095c0.438,0,0.725-0.135,0.86-0.414c0.136-0.278,0.188-0.538,0.155-0.776L260.623,58.875z
	 M260.623,58.875"/>
<path fill="#FFFFFF" d="M258.701,87.131c0.263-0.953,0.761-2.013,1.433-2.938c-0.146-0.628-0.239-1.269-0.263-1.906h-18.192
	c-0.051,0.479-0.147,0.946-0.319,1.375c-0.49,1.218-0.945,2.524-1.662,3.642c-0.545,0.851-1.164,1.64-1.785,2.435h20.535
	C258.41,88.86,258.467,87.984,258.701,87.131L258.701,87.131z M258.701,87.131"/>
<path fill="#FFFFFF" d="M6.734,79.835c0.107,0.181,0.395,0.271,0.871,0.271h51.162c0.821-2.491,1.658-4.975,2.516-7.452H9.111
	c-0.434,0-0.756,0.106-0.959,0.327c-0.203,0.218-0.352,0.566-0.451,1.044l-0.94,4.649C6.642,79.271,6.63,79.659,6.734,79.835
	L6.734,79.835z M6.734,79.835"/>
<path fill="#FFFFFF" d="M58.82,105.472c0.104-0.52,0.286-0.993,0.547-1.426c0.26-0.43,0.594-0.804,1.002-1.117
	c0.408-0.314,0.892-0.559,1.451-0.729c0.559-0.174,1.189-0.26,1.893-0.26c0.333,0,0.673,0.018,1.024,0.055
	c0.35,0.038,0.697,0.086,1.042,0.149c0.345,0.06,0.674,0.141,0.987,0.239c0.313,0.1,0.599,0.21,0.857,0.332
	c0.086,0.063,0.136,0.117,0.152,0.166c0.014,0.051-0.016,0.138-0.09,0.261l-0.698,1.257c-0.076,0.136-0.138,0.21-0.184,0.221
	c-0.046,0.013-0.114,0.007-0.208-0.017c-0.575-0.21-1.146-0.367-1.717-0.474c-0.571-0.103-1.109-0.155-1.614-0.155
	c-0.64,0-1.133,0.133-1.475,0.396c-0.344,0.267-0.552,0.579-0.624,0.936c-0.045,0.223-0.033,0.422,0.036,0.602
	c0.068,0.178,0.202,0.35,0.402,0.517c0.201,0.165,0.461,0.332,0.779,0.499c0.317,0.166,0.709,0.349,1.173,0.546
	c0.486,0.223,0.947,0.446,1.38,0.675c0.435,0.229,0.807,0.497,1.114,0.805c0.307,0.307,0.527,0.669,0.66,1.081
	c0.132,0.414,0.137,0.916,0.018,1.507c-0.13,0.643-0.362,1.199-0.699,1.673c-0.336,0.476-0.742,0.867-1.218,1.175
	c-0.475,0.31-1.011,0.539-1.61,0.693c-0.597,0.154-1.223,0.231-1.876,0.231c-0.776,0-1.576-0.074-2.397-0.223
	c-0.82-0.147-1.554-0.419-2.202-0.813c-0.158-0.074-0.165-0.223-0.021-0.445l0.808-1.256c0.125-0.186,0.272-0.242,0.442-0.166
	c0.542,0.246,1.113,0.453,1.714,0.619c0.601,0.167,1.198,0.25,1.79,0.25c0.936,0,1.632-0.161,2.084-0.482
	c0.454-0.318,0.729-0.72,0.826-1.201c0.053-0.26,0.049-0.486-0.01-0.684c-0.059-0.198-0.177-0.379-0.351-0.546
	c-0.177-0.166-0.41-0.327-0.699-0.481c-0.29-0.153-0.638-0.316-1.047-0.489c-0.614-0.259-1.159-0.519-1.636-0.776
	c-0.479-0.259-0.866-0.539-1.161-0.841c-0.296-0.303-0.502-0.643-0.618-1.019C58.731,106.38,58.722,105.951,58.82,105.472
	L58.82,105.472z M58.82,105.472"/>
<path fill="#FFFFFF" d="M78.144,104.047c-0.054,0.05-0.147,0.074-0.283,0.074h-3.514l-2.142,10.595
	c-0.036,0.173-0.084,0.279-0.149,0.322c-0.064,0.044-0.182,0.066-0.354,0.066h-1.443c-0.147,0-0.251-0.026-0.308-0.075
	c-0.059-0.048-0.071-0.153-0.038-0.313l2.142-10.595h-3.439c-0.136,0-0.217-0.024-0.243-0.074c-0.028-0.05-0.029-0.136-0.004-0.259
	l0.257-1.275c0.029-0.137,0.066-0.229,0.113-0.278c0.047-0.048,0.137-0.074,0.273-0.074h9.245c0.136,0,0.22,0.026,0.253,0.074
	c0.033,0.05,0.037,0.142,0.009,0.278l-0.258,1.275C78.236,103.911,78.196,103.997,78.144,104.047L78.144,104.047z M78.144,104.047"
	/>
<path fill="#FFFFFF" d="M87.336,113.311c-0.095,0.469-0.278,0.855-0.55,1.165c-0.272,0.309-0.696,0.518-1.273,0.629
	c-0.245,0.049-0.501,0.086-0.772,0.11c-0.27,0.025-0.536,0.046-0.799,0.065c-0.263,0.018-0.511,0.031-0.747,0.037
	c-0.236,0.005-0.445,0.009-0.63,0.009c-1.036,0-1.901-0.096-2.596-0.287c-0.695-0.19-1.226-0.508-1.592-0.952
	c-0.366-0.443-0.579-1.035-0.639-1.774c-0.06-0.74,0.021-1.658,0.243-2.755l1.399-7.009c0.032-0.159,0.091-0.264,0.175-0.313
	c0.083-0.049,0.193-0.074,0.329-0.074h1.441c0.173,0,0.282,0.022,0.33,0.065c0.046,0.043,0.052,0.149,0.018,0.322l-1.425,7.044
	c-0.127,0.629-0.192,1.179-0.194,1.647c-0.002,0.467,0.091,0.855,0.282,1.165c0.19,0.308,0.494,0.539,0.913,0.693
	c0.419,0.152,0.992,0.231,1.719,0.231c0.185,0,0.479-0.01,0.885-0.029c0.404-0.018,0.831-0.069,1.28-0.156l2.142-10.596
	c0.033-0.159,0.086-0.264,0.165-0.313c0.078-0.049,0.191-0.074,0.338-0.074h1.443c0.173,0,0.273,0.022,0.302,0.065
	c0.028,0.043,0.024,0.149-0.01,0.322L87.336,113.311z M87.336,113.311"/>
<path fill="#FFFFFF" d="M98.315,108.567c0.127-0.627,0.187-1.207,0.178-1.742c-0.01-0.535-0.116-1.004-0.318-1.403
	s-0.521-0.713-0.956-0.94c-0.434-0.228-1.009-0.343-1.724-0.343h-1.997l-1.806,8.932h2.053c0.714,0,1.329-0.114,1.842-0.342
	c0.516-0.227,0.953-0.542,1.311-0.94c0.357-0.4,0.649-0.873,0.879-1.421C98.003,109.82,98.183,109.22,98.315,108.567
	 M90.042,115.104c-0.395,0-0.649-0.083-0.764-0.25c-0.113-0.166-0.134-0.434-0.059-0.804l2.196-10.853
	c0.072-0.359,0.2-0.622,0.381-0.796c0.184-0.173,0.472-0.259,0.867-0.259l3.424-0.019c0.999,0,1.834,0.161,2.51,0.48
	c0.675,0.32,1.196,0.765,1.562,1.33c0.365,0.569,0.586,1.243,0.662,2.027c0.076,0.782,0.019,1.641-0.17,2.578
	c-0.187,0.924-0.466,1.788-0.838,2.589c-0.372,0.801-0.845,1.494-1.419,2.08c-0.574,0.586-1.257,1.048-2.046,1.386
	c-0.79,0.339-1.69,0.509-2.701,0.509H90.042z M90.042,115.104"/>
<path fill="#FFFFFF" d="M109.886,114.992c-0.064,0.074-0.177,0.111-0.337,0.111h-5.269c-0.654,0-1.171-0.092-1.553-0.276
	c-0.382-0.186-0.668-0.432-0.859-0.739c-0.19-0.31-0.295-0.659-0.312-1.055c-0.021-0.396,0.015-0.808,0.101-1.238l1.28-6.324
	c0.087-0.431,0.229-0.848,0.428-1.248c0.198-0.401,0.459-0.755,0.788-1.063c0.327-0.31,0.718-0.556,1.176-0.74
	c0.456-0.186,0.98-0.277,1.572-0.277h5.159c0.16,0,0.255,0.034,0.284,0.103c0.029,0.066,0.029,0.175-0.001,0.322l-0.235,1.165
	c-0.034,0.159-0.076,0.269-0.13,0.323c-0.055,0.056-0.162,0.083-0.322,0.083h-4.919c-0.468,0-0.819,0.105-1.053,0.315
	c-0.233,0.209-0.39,0.512-0.469,0.905l-0.392,1.942h5.584c0.16,0,0.254,0.03,0.285,0.092c0.031,0.063,0.029,0.18-0.005,0.353
	l-0.206,1.016c-0.031,0.148-0.074,0.256-0.131,0.324c-0.057,0.066-0.165,0.102-0.325,0.102h-5.584l-0.544,2.688
	c-0.079,0.392-0.037,0.689,0.125,0.891c0.163,0.203,0.466,0.304,0.909,0.304h5.029c0.173,0,0.274,0.031,0.306,0.095
	c0.03,0.062,0.027,0.18-0.008,0.354l-0.233,1.157C109.996,114.812,109.95,114.918,109.886,114.992L109.886,114.992z
	 M109.886,114.992"/>
<path fill="#FFFFFF" d="M115.461,105.527l-1.858,9.188c-0.036,0.173-0.084,0.281-0.149,0.324c-0.064,0.044-0.182,0.064-0.354,0.064
	h-1.368c-0.137,0-0.237-0.024-0.3-0.073c-0.065-0.049-0.08-0.153-0.048-0.315l2.314-11.445c0.08-0.394,0.215-0.681,0.406-0.858
	c0.189-0.179,0.489-0.269,0.895-0.269h0.648c0.32,0,0.543,0.059,0.667,0.176c0.124,0.117,0.252,0.33,0.388,0.639l2.442,6.12
	l1.034,2.662h0.073l1.862-9.208c0.033-0.16,0.084-0.266,0.157-0.315c0.071-0.048,0.187-0.073,0.347-0.073h1.368
	c0.161,0,0.266,0.025,0.319,0.073c0.051,0.05,0.06,0.155,0.028,0.315l-2.319,11.464c-0.073,0.357-0.2,0.632-0.388,0.823
	c-0.185,0.189-0.489,0.285-0.908,0.285h-0.647c-0.161,0-0.294-0.013-0.4-0.036c-0.106-0.024-0.196-0.067-0.27-0.131
	c-0.073-0.06-0.14-0.144-0.198-0.249c-0.059-0.104-0.123-0.23-0.192-0.38l-2.456-6.137l-1.019-2.644H115.461z M115.461,105.527"/>
<path fill="#FFFFFF" d="M134.759,104.047c-0.054,0.05-0.147,0.074-0.283,0.074h-3.514l-2.142,10.595
	c-0.036,0.173-0.084,0.279-0.149,0.322c-0.064,0.044-0.182,0.066-0.354,0.066h-1.443c-0.147,0-0.251-0.026-0.308-0.075
	c-0.059-0.048-0.071-0.153-0.038-0.313l2.142-10.595h-3.439c-0.136,0-0.217-0.024-0.243-0.074c-0.028-0.05-0.029-0.136-0.004-0.259
	l0.257-1.275c0.029-0.137,0.066-0.229,0.113-0.278c0.047-0.048,0.137-0.074,0.273-0.074h9.245c0.136,0,0.22,0.026,0.253,0.074
	c0.033,0.05,0.037,0.142,0.009,0.278l-0.258,1.275C134.852,103.911,134.812,103.997,134.759,104.047L134.759,104.047z
	 M134.759,104.047"/>
<path fill="#FFFFFF" d="M142.54,114.439c0.555,0,1.12-0.065,1.695-0.194c0.574-0.13,1.148-0.33,1.72-0.602
	c0.148-0.061,0.231-0.037,0.244,0.073l0.137,0.427c0.034,0.135-0.004,0.228-0.112,0.275c-0.372,0.198-0.744,0.356-1.112,0.472
	c-0.37,0.117-0.726,0.207-1.072,0.27c-0.345,0.061-0.674,0.101-0.985,0.12c-0.313,0.018-0.591,0.026-0.837,0.026
	c-0.814,0-1.516-0.127-2.107-0.379c-0.59-0.252-1.058-0.646-1.406-1.183c-0.348-0.536-0.559-1.211-0.635-2.025
	c-0.076-0.813,0-1.787,0.23-2.921c0.218-1.073,0.538-2.03,0.961-2.876c0.424-0.843,0.928-1.558,1.515-2.144
	c0.587-0.585,1.239-1.032,1.954-1.34c0.715-0.31,1.474-0.464,2.275-0.464c0.53,0,1.065,0.05,1.607,0.148
	c0.54,0.099,1.092,0.315,1.654,0.647c0.101,0.05,0.108,0.136,0.021,0.259l-0.352,0.463c-0.068,0.086-0.145,0.104-0.234,0.055
	c-0.498-0.284-0.979-0.472-1.447-0.563c-0.469-0.094-0.938-0.14-1.406-0.14c-0.765,0-1.456,0.16-2.076,0.481
	c-0.62,0.32-1.163,0.753-1.629,1.294c-0.467,0.543-0.86,1.174-1.179,1.895c-0.319,0.723-0.559,1.483-0.721,2.284
	c-0.172,0.851-0.245,1.624-0.219,2.321c0.026,0.696,0.167,1.288,0.426,1.775c0.259,0.485,0.642,0.864,1.149,1.137
	C141.104,114.303,141.751,114.439,142.54,114.439L142.54,114.439z M142.54,114.439"/>
<path fill="#FFFFFF" d="M149.851,102.975c-0.11,0-0.154-0.061-0.13-0.182l0.095-0.469c0.024-0.121,0.093-0.181,0.203-0.181h7.914
	c0.185,0,0.316,0.032,0.396,0.102c0.079,0.067,0.097,0.199,0.058,0.396l-0.049,0.239c-0.027,0.138-0.091,0.27-0.192,0.399
	c-0.099,0.129-0.21,0.249-0.331,0.36l-10.367,10.575l0.026,0.057h8.394c0.111,0,0.154,0.061,0.129,0.184l-0.097,0.481
	c-0.023,0.11-0.089,0.167-0.2,0.167h-8.949c-0.172,0-0.299-0.03-0.379-0.094c-0.08-0.061-0.103-0.179-0.068-0.351l0.037-0.186
	c0.05-0.246,0.158-0.444,0.324-0.594c1.785-1.813,3.558-3.623,5.322-5.425c1.764-1.802,3.538-3.611,5.322-5.426l0.012-0.056H149.851
	z M149.851,102.975"/>
<path fill="#FFFFFF" d="M165.001,115.104h-5.141c-0.53,0-0.96-0.071-1.288-0.214c-0.329-0.141-0.576-0.339-0.741-0.591
	c-0.165-0.253-0.257-0.555-0.278-0.906c-0.022-0.352,0.009-0.729,0.091-1.138l1.465-7.248c0.083-0.405,0.208-0.785,0.379-1.136
	c0.169-0.352,0.392-0.658,0.665-0.915c0.275-0.26,0.605-0.46,0.992-0.602c0.385-0.143,0.837-0.212,1.355-0.212h4.937
	c0.135,0,0.189,0.072,0.159,0.221l-0.086,0.426c-0.03,0.147-0.113,0.222-0.249,0.222h-4.918c-0.666,0-1.178,0.155-1.537,0.47
	c-0.36,0.313-0.601,0.776-0.725,1.391l-0.589,2.91h6.231c0.135,0,0.19,0.068,0.162,0.208l-0.084,0.416
	c-0.029,0.138-0.111,0.208-0.246,0.208h-6.231l-0.762,3.771c-0.113,0.557-0.069,1.003,0.134,1.343
	c0.203,0.338,0.662,0.508,1.377,0.508h5.104c0.135,0,0.187,0.072,0.158,0.222l-0.086,0.425
	C165.219,115.03,165.136,115.104,165.001,115.104L165.001,115.104z M165.001,115.104"/>
<path fill="#FFFFFF" d="M171.55,114.439c0.555,0,1.12-0.065,1.695-0.194c0.574-0.13,1.148-0.33,1.72-0.602
	c0.148-0.061,0.231-0.037,0.244,0.073l0.137,0.427c0.034,0.135-0.004,0.228-0.112,0.275c-0.372,0.198-0.744,0.356-1.112,0.472
	c-0.37,0.117-0.726,0.207-1.072,0.27c-0.345,0.061-0.674,0.101-0.985,0.12c-0.313,0.018-0.591,0.026-0.837,0.026
	c-0.814,0-1.516-0.127-2.107-0.379c-0.59-0.252-1.058-0.646-1.406-1.183c-0.348-0.536-0.559-1.211-0.635-2.025
	c-0.076-0.813,0-1.787,0.23-2.921c0.218-1.073,0.538-2.03,0.961-2.876c0.424-0.843,0.928-1.558,1.515-2.144
	c0.587-0.585,1.239-1.032,1.954-1.34c0.715-0.31,1.474-0.464,2.275-0.464c0.53,0,1.065,0.05,1.607,0.148
	c0.54,0.099,1.092,0.315,1.654,0.647c0.101,0.05,0.108,0.136,0.021,0.259l-0.352,0.463c-0.068,0.086-0.145,0.104-0.234,0.055
	c-0.498-0.284-0.979-0.472-1.447-0.563c-0.469-0.094-0.938-0.14-1.406-0.14c-0.765,0-1.456,0.16-2.076,0.481
	c-0.62,0.32-1.163,0.753-1.629,1.294c-0.467,0.543-0.86,1.174-1.179,1.895c-0.319,0.723-0.559,1.483-0.721,2.284
	c-0.172,0.851-0.245,1.624-0.219,2.321c0.026,0.696,0.167,1.288,0.426,1.775c0.259,0.485,0.642,0.864,1.149,1.137
	C170.114,114.303,170.761,114.439,171.55,114.439L171.55,114.439z M171.55,114.439"/>
<path fill="#FFFFFF" d="M176.963,115.104h-0.592c-0.123,0-0.174-0.057-0.151-0.167l2.551-12.609
	c0.024-0.124,0.098-0.185,0.221-0.185h0.592c0.123,0,0.173,0.061,0.149,0.185l-1.112,5.491h7.636l1.111-5.491
	c0.025-0.124,0.099-0.185,0.223-0.185h0.573c0.123,0,0.172,0.061,0.148,0.185l-2.551,12.609c-0.023,0.11-0.095,0.167-0.218,0.167
	h-0.573c-0.124,0-0.175-0.057-0.153-0.167l1.272-6.286h-7.636l-1.271,6.286C177.159,115.048,177.086,115.104,176.963,115.104
	L176.963,115.104z M176.963,115.104"/>
<path fill="#FFFFFF" d="M195.084,103.03l-1.088,5.381h3.697c0.937,0,1.704-0.241,2.301-0.725c0.597-0.481,0.982-1.148,1.154-2.004
	c0.163-0.803,0.038-1.45-0.376-1.938c-0.413-0.487-1.044-0.727-1.898-0.714H195.084z M192.657,114.937
	c-0.022,0.112-0.095,0.167-0.219,0.167h-0.591c-0.111,0-0.156-0.055-0.133-0.167l2.442-12.072c0.045-0.224,0.123-0.397,0.237-0.527
	c0.112-0.13,0.322-0.194,0.629-0.194h4.162c0.579,0,1.078,0.089,1.498,0.269c0.42,0.179,0.752,0.426,0.997,0.741
	c0.244,0.313,0.404,0.682,0.479,1.101c0.075,0.419,0.065,0.87-0.033,1.351c-0.075,0.37-0.193,0.732-0.357,1.082
	c-0.163,0.353-0.368,0.675-0.612,0.964c-0.243,0.289-0.531,0.546-0.865,0.769c-0.336,0.221-0.705,0.388-1.109,0.499l-0.004,0.018
	c0.48,0.186,0.814,0.45,1.004,0.794c0.189,0.346,0.299,0.771,0.334,1.275l0.317,3.916c0.012,0.123-0.049,0.184-0.185,0.184h-0.628
	c-0.025,0-0.061-0.006-0.108-0.018c-0.047-0.012-0.075-0.056-0.085-0.13c-0.048-0.615-0.097-1.232-0.143-1.85l-0.144-1.848
	c-0.029-0.408-0.109-0.741-0.242-1c-0.132-0.258-0.301-0.464-0.503-0.619c-0.203-0.153-0.444-0.258-0.723-0.313
	c-0.278-0.057-0.577-0.084-0.897-0.084h-3.365L192.657,114.937z M192.657,114.937"/>
<path fill="#FFFFFF" d="M209.986,115.104h-5.141c-0.53,0-0.96-0.071-1.288-0.214c-0.329-0.141-0.576-0.339-0.741-0.591
	c-0.164-0.253-0.257-0.555-0.278-0.906c-0.022-0.352,0.009-0.729,0.091-1.138l1.465-7.248c0.083-0.405,0.208-0.785,0.379-1.136
	c0.169-0.352,0.392-0.658,0.665-0.915c0.275-0.26,0.604-0.46,0.992-0.602c0.385-0.143,0.837-0.212,1.355-0.212h4.937
	c0.135,0,0.188,0.072,0.159,0.221l-0.086,0.426c-0.03,0.147-0.113,0.222-0.249,0.222h-4.918c-0.666,0-1.178,0.155-1.537,0.47
	c-0.36,0.313-0.601,0.776-0.725,1.391l-0.589,2.91h6.231c0.135,0,0.189,0.068,0.162,0.208l-0.084,0.416
	c-0.029,0.138-0.111,0.208-0.246,0.208h-6.231l-0.762,3.771c-0.113,0.557-0.069,1.003,0.134,1.343
	c0.203,0.338,0.662,0.508,1.377,0.508h5.104c0.135,0,0.187,0.072,0.157,0.222l-0.086,0.425
	C210.205,115.03,210.122,115.104,209.986,115.104L209.986,115.104z M209.986,115.104"/>
<path fill="#FFFFFF" d="M213.609,108.707h3.753c0.407,0,0.802-0.06,1.183-0.178c0.38-0.116,0.729-0.297,1.042-0.538
	c0.313-0.24,0.584-0.54,0.811-0.898c0.228-0.359,0.389-0.773,0.483-1.242c0.064-0.323,0.081-0.65,0.05-0.984
	s-0.13-0.638-0.297-0.908c-0.167-0.272-0.417-0.495-0.753-0.668c-0.334-0.175-0.779-0.261-1.334-0.261h-3.79L213.609,108.707z
	 M213.867,102.863c0.045-0.222,0.122-0.396,0.235-0.526c0.112-0.131,0.322-0.193,0.63-0.193h4.217c0.555,0,1.041,0.088,1.462,0.267
	c0.42,0.18,0.754,0.433,1.002,0.759c0.249,0.326,0.413,0.716,0.495,1.165c0.081,0.449,0.066,0.945-0.043,1.487
	c-0.069,0.346-0.203,0.734-0.401,1.165c-0.199,0.433-0.483,0.835-0.855,1.211s-0.837,0.694-1.395,0.952
	c-0.558,0.259-1.226,0.389-2.001,0.389h-3.772l-1.092,5.398c-0.021,0.112-0.095,0.167-0.218,0.167h-0.574
	c-0.11,0-0.155-0.055-0.133-0.167L213.867,102.863z M213.867,102.863"/>
<path fill="#FFFFFF" d="M224.071,102.144h0.665c0.1,0,0.137,0.061,0.111,0.185l-1.459,7.211c-0.179,0.887-0.277,1.642-0.292,2.264
	c-0.014,0.622,0.098,1.133,0.339,1.527c0.24,0.395,0.642,0.683,1.201,0.868c0.561,0.185,1.334,0.277,2.321,0.277
	c0.098,0,0.26-0.004,0.482-0.01c0.224-0.007,0.479-0.021,0.768-0.047c0.288-0.022,0.603-0.058,0.944-0.101
	c0.341-0.043,0.68-0.097,1.013-0.156l2.393-11.834c0.025-0.124,0.08-0.185,0.167-0.185h0.665c0.086,0,0.118,0.061,0.093,0.185
	l-2.363,11.685c-0.058,0.284-0.161,0.51-0.313,0.676s-0.392,0.279-0.725,0.342c-0.244,0.049-0.52,0.09-0.82,0.12
	s-0.607,0.058-0.914,0.083c-0.306,0.024-0.597,0.043-0.871,0.056c-0.273,0.012-0.509,0.019-0.706,0.019
	c-1.022,0-1.866-0.087-2.527-0.26c-0.66-0.172-1.165-0.471-1.51-0.896c-0.346-0.425-0.542-0.996-0.588-1.711
	c-0.047-0.714,0.041-1.62,0.263-2.718l1.496-7.396C223.928,102.204,223.984,102.144,224.071,102.144L224.071,102.144z
	 M224.071,102.144"/>
<path fill="#FFFFFF" d="M235.367,107.727h3.79c0.26,0,0.553-0.033,0.88-0.103c0.328-0.068,0.649-0.195,0.966-0.38
	c0.313-0.185,0.596-0.436,0.844-0.752c0.25-0.316,0.422-0.715,0.52-1.198c0.13-0.642,0.024-1.184-0.316-1.624
	c-0.345-0.438-0.91-0.658-1.699-0.658h-4.03L235.367,107.727z M241.715,111.258c0.167-0.825,0.026-1.49-0.418-1.997
	c-0.448-0.505-1.194-0.758-2.242-0.758h-3.845l-1.159,5.732h3.882c0.678,0,1.244-0.103,1.698-0.307
	c0.454-0.201,0.824-0.451,1.112-0.748c0.287-0.296,0.508-0.615,0.656-0.961C241.551,111.874,241.655,111.554,241.715,111.258
	 M240.861,108.078c0.47,0.11,0.841,0.287,1.113,0.527c0.271,0.239,0.469,0.515,0.592,0.822c0.122,0.309,0.188,0.633,0.192,0.972
	c0.005,0.338-0.024,0.669-0.089,0.987c-0.113,0.557-0.314,1.064-0.605,1.526c-0.29,0.462-0.643,0.854-1.06,1.174
	c-0.415,0.321-0.887,0.57-1.408,0.749c-0.524,0.18-1.081,0.269-1.672,0.269h-4.253c-0.26,0-0.438-0.049-0.534-0.149
	c-0.097-0.097-0.12-0.276-0.068-0.536l2.338-11.555c0.045-0.223,0.126-0.398,0.245-0.528s0.332-0.192,0.641-0.192h4.142
	c0.493,0,0.943,0.061,1.35,0.185c0.405,0.123,0.743,0.313,1.013,0.573c0.267,0.259,0.454,0.585,0.559,0.979
	c0.105,0.396,0.104,0.858-0.003,1.388c-0.052,0.26-0.14,0.523-0.262,0.795c-0.123,0.271-0.283,0.525-0.48,0.768
	c-0.196,0.241-0.437,0.461-0.726,0.666c-0.288,0.202-0.622,0.366-1.004,0.49L240.861,108.078z M240.861,108.078"/>
<path fill="#FFFFFF" d="M251.55,115.104h-5.251c-0.518,0-0.94-0.071-1.27-0.214c-0.33-0.141-0.578-0.343-0.748-0.6
	c-0.168-0.259-0.264-0.563-0.286-0.916c-0.021-0.351,0.009-0.729,0.091-1.137l2.005-9.91c0.024-0.124,0.1-0.185,0.223-0.185h0.572
	c0.123,0,0.174,0.061,0.148,0.185l-2.02,9.984c-0.127,0.629-0.072,1.105,0.163,1.433s0.692,0.49,1.371,0.49h5.178
	c0.11,0,0.153,0.062,0.129,0.184l-0.102,0.5C251.73,115.042,251.662,115.104,251.55,115.104L251.55,115.104z M251.55,115.104"/>
<path fill="#FFFFFF" d="M253.677,115.104h-0.572c-0.123,0-0.175-0.057-0.152-0.167l2.551-12.609c0.025-0.124,0.1-0.185,0.222-0.185
	h0.573c0.123,0,0.172,0.061,0.148,0.185l-2.551,12.609C253.873,115.048,253.8,115.104,253.677,115.104L253.677,115.104z
	 M253.677,115.104"/>
<path fill="#FFFFFF" d="M261.428,114.439c0.556,0,1.12-0.065,1.695-0.194c0.574-0.13,1.148-0.33,1.72-0.602
	c0.148-0.061,0.231-0.037,0.244,0.073l0.137,0.427c0.034,0.135-0.004,0.228-0.111,0.275c-0.372,0.198-0.744,0.356-1.112,0.472
	c-0.37,0.117-0.726,0.207-1.072,0.27c-0.345,0.061-0.674,0.101-0.984,0.12c-0.313,0.018-0.592,0.026-0.837,0.026
	c-0.814,0-1.517-0.127-2.107-0.379c-0.59-0.252-1.058-0.646-1.406-1.183c-0.348-0.536-0.559-1.211-0.635-2.025
	c-0.076-0.813,0-1.787,0.23-2.921c0.218-1.073,0.537-2.03,0.961-2.876c0.424-0.843,0.928-1.558,1.515-2.144
	c0.587-0.585,1.239-1.032,1.954-1.34c0.715-0.31,1.474-0.464,2.275-0.464c0.529,0,1.064,0.05,1.606,0.148
	c0.54,0.099,1.092,0.315,1.654,0.647c0.101,0.05,0.107,0.136,0.021,0.259l-0.352,0.463c-0.068,0.086-0.146,0.104-0.234,0.055
	c-0.498-0.284-0.979-0.472-1.447-0.563c-0.469-0.094-0.938-0.14-1.405-0.14c-0.766,0-1.456,0.16-2.076,0.481
	c-0.62,0.32-1.163,0.753-1.629,1.294c-0.467,0.543-0.86,1.174-1.18,1.895c-0.318,0.723-0.559,1.483-0.721,2.284
	c-0.172,0.851-0.245,1.624-0.219,2.321c0.026,0.696,0.167,1.288,0.426,1.775c0.259,0.485,0.643,0.864,1.149,1.137
	C259.993,114.303,260.639,114.439,261.428,114.439L261.428,114.439z M261.428,114.439"/>
</svg>
